# Blender 4.4.0
# www.blender.org
mtllib ScaleGizmo.mtl
o ScaleGizmo
v -1.284381 -1.882070 -0.104918
v -1.284381 -1.882070 0.104918
v -1.284381 -1.669906 -0.104918
v -1.284381 -1.669906 0.104918
v -1.073285 -1.882070 -0.104918
v -1.073285 -1.882070 0.104918
v -1.073285 -1.669906 -0.104918
v -1.073285 -1.669906 0.104918
v -1.178833 -0.000016 0.075189
v -1.178833 -1.723880 0.075188
v -1.164036 -0.000016 0.073744
v -1.164036 -1.723880 0.073744
v -1.149808 -0.000016 0.069466
v -1.149808 -1.723880 0.069466
v -1.136694 -0.000016 0.062517
v -1.136694 -1.723880 0.062517
v -1.125200 -0.000016 0.053167
v -1.125200 -1.723880 0.053166
v -1.115768 -0.000016 0.041773
v -1.115768 -1.723880 0.041773
v -1.108759 -0.000016 0.028774
v -1.108759 -1.723880 0.028774
v -1.104443 -0.000016 0.014668
v -1.104442 -1.723880 0.014668
v -1.102985 -0.000016 -0.000000
v -1.102985 -1.723880 -0.000000
v -1.104443 -0.000016 -0.014668
v -1.104442 -1.723880 -0.014668
v -1.108759 -0.000016 -0.028774
v -1.108759 -1.723880 -0.028774
v -1.115768 -0.000016 -0.041773
v -1.115768 -1.723880 -0.041773
v -1.125200 -0.000016 -0.053166
v -1.125200 -1.723880 -0.053166
v -1.136694 -0.000016 -0.062517
v -1.136694 -1.723880 -0.062518
v -1.149808 -0.000016 -0.069466
v -1.149808 -1.723880 -0.069466
v -1.164036 -0.000016 -0.073744
v -1.164036 -1.723880 -0.073744
v -1.178833 -0.000016 -0.075188
v -1.178833 -1.723880 -0.075189
v -1.193631 -0.000016 -0.073744
v -1.193630 -1.723880 -0.073744
v -1.207859 -0.000016 -0.069466
v -1.207859 -1.723880 -0.069466
v -1.220972 -0.000016 -0.062517
v -1.220972 -1.723880 -0.062518
v -1.232466 -0.000016 -0.053166
v -1.232466 -1.723880 -0.053166
v -1.241899 -0.000016 -0.041773
v -1.241899 -1.723880 -0.041773
v -1.248907 -0.000016 -0.028774
v -1.248907 -1.723880 -0.028774
v -1.253224 -0.000016 -0.014668
v -1.253224 -1.723880 -0.014668
v -1.254682 -0.000016 0.000000
v -1.254682 -1.723880 0.000000
v -1.253224 -0.000016 0.014668
v -1.253224 -1.723880 0.014668
v -1.248907 -0.000016 0.028774
v -1.248907 -1.723880 0.028774
v -1.241899 -0.000016 0.041773
v -1.241899 -1.723880 0.041773
v -1.232466 -0.000016 0.053167
v -1.232466 -1.723880 0.053166
v -1.220972 -0.000016 0.062517
v -1.220972 -1.723880 0.062517
v -1.207859 -0.000016 0.069466
v -1.207859 -1.723880 0.069466
v -1.193630 -0.000016 0.073744
v -1.193630 -1.723880 0.073744
vn -0.5773 -0.5774 -0.5774
vn -0.5774 -0.5773 0.5773
vn -0.5774 0.5773 -0.5773
vn -0.5773 0.5774 0.5774
vn 0.5774 -0.5773 -0.5773
vn 0.5773 -0.5774 0.5774
vn 0.5773 0.5774 -0.5774
vn 0.5774 0.5773 0.5773
vn -0.0000 0.6859 0.7277
vn -0.0000 -0.6859 0.7277
vn 0.1408 0.6859 0.7140
vn 0.1408 -0.6858 0.7140
vn 0.2765 0.6858 0.6732
vn 0.2765 -0.6858 0.6732
vn 0.4020 0.6857 0.6068
vn 0.4020 -0.6857 0.6068
vn 0.5125 0.6857 0.5169
vn 0.5125 -0.6857 0.5169
vn 0.6037 0.6856 0.4068
vn 0.6036 -0.6856 0.4069
vn 0.6717 0.6856 0.2806
vn 0.6718 -0.6855 0.2807
vn 0.7138 0.6855 0.1432
vn 0.7138 -0.6855 0.1432
vn 0.7281 0.6855 -0.0000
vn 0.7281 -0.6855 -0.0000
vn 0.7138 0.6855 -0.1432
vn 0.7138 -0.6855 -0.1432
vn 0.6717 0.6856 -0.2806
vn 0.6718 -0.6855 -0.2807
vn 0.6037 0.6856 -0.4068
vn 0.6037 -0.6856 -0.4068
vn 0.5125 0.6857 -0.5169
vn 0.5125 -0.6857 -0.5169
vn 0.4020 0.6858 -0.6068
vn 0.4020 -0.6857 -0.6068
vn 0.2765 0.6858 -0.6732
vn 0.2765 -0.6858 -0.6732
vn 0.1408 0.6858 -0.7140
vn 0.1408 -0.6858 -0.7140
vn -0.0000 0.6859 -0.7277
vn -0.0000 -0.6859 -0.7277
vn -0.1408 0.6859 -0.7140
vn -0.1408 -0.6858 -0.7140
vn -0.2765 0.6858 -0.6732
vn -0.2765 -0.6858 -0.6732
vn -0.4020 0.6857 -0.6068
vn -0.4020 -0.6858 -0.6067
vn -0.5125 0.6857 -0.5169
vn -0.5125 -0.6857 -0.5169
vn -0.6037 0.6856 -0.4068
vn -0.6037 -0.6856 -0.4069
vn -0.6717 0.6856 -0.2806
vn -0.6718 -0.6856 -0.2806
vn -0.7138 0.6855 -0.1432
vn -0.7138 -0.6855 -0.1432
vn -0.7281 0.6855 -0.0000
vn -0.7281 -0.6855 -0.0000
vn -0.7138 0.6855 0.1432
vn -0.7138 -0.6855 0.1432
vn -0.6717 0.6856 0.2806
vn -0.6718 -0.6856 0.2806
vn -0.6037 0.6856 0.4068
vn -0.6037 -0.6856 0.4068
vn -0.5125 0.6857 0.5169
vn -0.5125 -0.6857 0.5169
vn -0.4020 0.6858 0.6067
vn -0.4020 -0.6858 0.6067
vn -0.2765 0.6858 0.6732
vn -0.2765 -0.6858 0.6732
vn -0.1408 0.6859 0.7140
vn -0.1408 -0.6858 0.7140
s 1
g ScaleGizmo_AxisMaterial
usemtl AxisMaterial
f 2//2 3//3 1//1
f 4//4 7//7 3//3
f 8//8 5//5 7//7
f 6//6 1//1 5//5
f 7//7 1//1 3//3
f 4//4 6//6 8//8
f 10//10 11//11 9//9
f 12//12 13//13 11//11
f 14//14 15//15 13//13
f 16//16 17//17 15//15
f 18//18 19//19 17//17
f 20//20 21//21 19//19
f 22//22 23//23 21//21
f 24//24 25//25 23//23
f 26//26 27//27 25//25
f 28//28 29//29 27//27
f 30//30 31//31 29//29
f 32//32 33//33 31//31
f 34//34 35//35 33//33
f 36//36 37//37 35//35
f 38//38 39//39 37//37
f 40//40 41//41 39//39
f 42//42 43//43 41//41
f 44//44 45//45 43//43
f 46//46 47//47 45//45
f 48//48 49//49 47//47
f 50//50 51//51 49//49
f 52//52 53//53 51//51
f 54//54 55//55 53//53
f 56//56 57//57 55//55
f 58//58 59//59 57//57
f 60//60 61//61 59//59
f 62//62 63//63 61//61
f 64//64 65//65 63//63
f 66//66 67//67 65//65
f 68//68 69//69 67//67
f 46//46 30//30 14//14
f 70//70 71//71 69//69
f 72//72 9//9 71//71
f 39//39 55//55 71//71
f 10//10 12//12 11//11
f 12//12 14//14 13//13
f 14//14 16//16 15//15
f 16//16 18//18 17//17
f 18//18 20//20 19//19
f 20//20 22//22 21//21
f 22//22 24//24 23//23
f 24//24 26//26 25//25
f 26//26 28//28 27//27
f 28//28 30//30 29//29
f 30//30 32//32 31//31
f 32//32 34//34 33//33
f 34//34 36//36 35//35
f 36//36 38//38 37//37
f 38//38 40//40 39//39
f 40//40 42//42 41//41
f 42//42 44//44 43//43
f 44//44 46//46 45//45
f 46//46 48//48 47//47
f 48//48 50//50 49//49
f 50//50 52//52 51//51
f 52//52 54//54 53//53
f 54//54 56//56 55//55
f 56//56 58//58 57//57
f 58//58 60//60 59//59
f 60//60 62//62 61//61
f 62//62 64//64 63//63
f 64//64 66//66 65//65
f 66//66 68//68 67//67
f 68//68 70//70 69//69
f 14//14 12//12 10//10
f 10//10 72//72 70//70
f 70//70 68//68 66//66
f 66//66 64//64 62//62
f 62//62 60//60 58//58
f 58//58 56//56 54//54
f 54//54 52//52 50//50
f 50//50 48//48 46//46
f 46//46 44//44 42//42
f 42//42 40//40 38//38
f 38//38 36//36 34//34
f 34//34 32//32 30//30
f 30//30 28//28 26//26
f 26//26 24//24 22//22
f 22//22 20//20 18//18
f 18//18 16//16 14//14
f 14//14 10//10 70//70
f 70//70 66//66 62//62
f 62//62 58//58 54//54
f 54//54 50//50 46//46
f 46//46 42//42 38//38
f 38//38 34//34 30//30
f 30//30 26//26 22//22
f 22//22 18//18 14//14
f 14//14 70//70 62//62
f 62//62 54//54 46//46
f 46//46 38//38 30//30
f 30//30 22//22 14//14
f 14//14 62//62 46//46
f 70//70 72//72 71//71
f 72//72 10//10 9//9
f 71//71 9//9 11//11
f 11//11 13//13 15//15
f 15//15 17//17 19//19
f 19//19 21//21 23//23
f 23//23 25//25 27//27
f 27//27 29//29 31//31
f 31//31 33//33 35//35
f 35//35 37//37 39//39
f 39//39 41//41 43//43
f 43//43 45//45 47//47
f 47//47 49//49 51//51
f 51//51 53//53 55//55
f 55//55 57//57 59//59
f 59//59 61//61 63//63
f 63//63 65//65 67//67
f 67//67 69//69 71//71
f 71//71 11//11 15//15
f 15//15 19//19 23//23
f 23//23 27//27 31//31
f 31//31 35//35 39//39
f 39//39 43//43 47//47
f 47//47 51//51 55//55
f 55//55 59//59 63//63
f 63//63 67//67 71//71
f 71//71 15//15 23//23
f 23//23 31//31 39//39
f 39//39 47//47 55//55
f 55//55 63//63 71//71
f 71//71 23//23 39//39
f 2//2 4//4 3//3
f 4//4 8//8 7//7
f 8//8 6//6 5//5
f 6//6 2//2 1//1
f 7//7 5//5 1//1
f 4//4 2//2 6//6
