# Blender 4.3.2
# www.blender.org
mtllib gizmo_loc_z.mtl
o Gizmo_Location
v 0.090703 -0.000040 -0.000043
v 0.090703 -0.000040 1.002548
v 0.083784 -0.034747 -0.000043
v 0.083784 -0.034747 1.002548
v 0.064109 -0.064165 -0.000043
v 0.064109 -0.064165 1.002548
v 0.034674 -0.083814 -0.000043
v 0.034674 -0.083814 1.002548
v -0.000040 -0.090703 -0.000043
v -0.000040 -0.090703 1.002548
v -0.034747 -0.083784 -0.000043
v -0.034747 -0.083784 1.002548
v -0.064165 -0.064109 -0.000043
v -0.064165 -0.064109 1.002548
v -0.083814 -0.034674 -0.000043
v -0.083814 -0.034674 1.002548
v -0.090703 0.000040 -0.000043
v -0.090703 0.000040 1.002548
v -0.083784 0.034747 -0.000043
v -0.083784 0.034747 1.002548
v -0.064109 0.064165 -0.000043
v -0.064109 0.064165 1.002548
v -0.034674 0.083814 -0.000043
v -0.034674 0.083814 1.002548
v 0.000040 0.090703 -0.000043
v 0.000040 0.090703 1.002548
v 0.034747 0.083784 -0.000043
v 0.034747 0.083784 1.002548
v 0.064165 0.064109 -0.000043
v 0.064165 0.064109 1.002548
v 0.083814 0.034674 -0.000043
v 0.083814 0.034674 1.002548
v -0.000000 -0.000000 1.302730
v 0.161353 -0.000070 1.002678
v -0.061812 -0.149044 1.002678
v -0.149044 0.061812 1.002678
v 0.114143 0.114044 1.002678
v 0.061682 -0.149098 1.002678
v -0.149098 -0.061682 1.002678
v 0.000070 0.161353 1.002678
v 0.149044 -0.061812 1.002678
v -0.114044 0.114143 1.002678
v -0.161353 0.000070 1.002678
v -0.114143 -0.114044 1.002678
v 0.149098 0.061682 1.002678
v -0.000070 -0.161353 1.002678
v 0.061812 0.149044 1.002678
v 0.114044 -0.114143 1.002678
v -0.061682 0.149098 1.002678
vn 0.9807 -0.1955 -0.0000
vn 0.8312 -0.5559 -0.0000
vn 0.5552 -0.8317 -0.0000
vn 0.1947 -0.9809 -0.0000
vn -0.1955 -0.9807 -0.0000
vn -0.5559 -0.8312 -0.0000
vn -0.8317 -0.5552 -0.0000
vn -0.9809 -0.1947 -0.0000
vn -0.9807 0.1955 -0.0000
vn -0.8312 0.5559 -0.0000
vn -0.5552 0.8317 -0.0000
vn -0.1947 0.9809 -0.0000
vn 0.1955 0.9807 -0.0000
vn 0.5559 0.8312 -0.0000
vn 0.8317 0.5552 -0.0000
vn 0.0018 -0.0004 -1.0000
vn 0.4911 -0.7357 0.4665
vn -0.0000 -0.0000 -1.0000
vn -0.1729 -0.8674 0.4665
vn -0.7357 -0.4911 0.4665
vn -0.8674 0.1729 0.4665
vn -0.7352 0.4917 0.4665
vn 0.4917 0.7352 0.4665
vn -0.4917 -0.7352 0.4665
vn 0.8674 -0.1729 0.4665
vn 0.7357 0.4911 0.4665
vn 0.8676 0.1722 0.4665
vn 0.1729 0.8674 0.4665
vn 0.7352 -0.4917 0.4665
vn -0.1722 0.8676 0.4665
vn -0.4911 0.7357 0.4665
vn -0.8676 -0.1722 0.4665
vn 0.0018 0.0004 -1.0000
vn -0.0004 -0.0019 -1.0000
vn -0.0004 0.0018 -1.0000
vn 0.0010 -0.0016 -1.0000
vn -0.0016 -0.0010 -1.0000
vn 0.0010 0.0016 -1.0000
vn 0.1722 -0.8676 0.4665
vn -0.0018 0.0004 -1.0000
vn -0.0010 0.0016 -1.0000
vn 0.0016 -0.0010 -1.0000
vn 0.0004 0.0019 -1.0000
vn 0.0004 -0.0018 -1.0000
vn 0.0016 0.0010 -1.0000
vn -0.0010 -0.0016 -1.0000
vn -0.0018 -0.0004 -1.0000
vn -0.0016 0.0010 -1.0000
vn 0.9809 0.1947 -0.0000
vn -0.0004 -0.0018 -1.0000
vn 0.0004 0.0018 -1.0000
vt 0.906250 1.000000
vt 0.968750 0.500000
vt 0.968750 1.000000
vt 0.843750 1.000000
vt 0.906250 0.500000
vt 0.781250 1.000000
vt 0.843750 0.500000
vt 0.718750 1.000000
vt 0.781250 0.500000
vt 0.656250 1.000000
vt 0.718750 0.500000
vt 0.593750 1.000000
vt 0.656250 0.500000
vt 0.531250 1.000000
vt 0.593750 0.500000
vt 0.468750 1.000000
vt 0.531250 0.500000
vt 0.406250 1.000000
vt 0.468750 0.500000
vt 0.343750 1.000000
vt 0.406250 0.500000
vt 0.281250 1.000000
vt 0.343750 0.500000
vt 0.218750 1.000000
vt 0.281250 0.500000
vt 0.156250 1.000000
vt 0.218750 0.500000
vt 0.093750 1.000000
vt 0.156250 0.500000
vt 0.031250 1.000000
vt 0.093750 0.500000
vt 0.796822 0.014612
vt 0.514612 0.203178
vt 0.703178 0.485388
vt 0.406250 1.000000
vt 0.093750 1.000000
vt 0.031250 0.500000
vt 0.796822 0.485388
vt 0.883337 0.449553
vt 0.949553 0.383337
vt 0.985388 0.296822
vt 0.985388 0.203178
vt 0.949553 0.116663
vt 0.883337 0.050447
vt 0.703178 0.014612
vt 0.616663 0.050447
vt 0.550447 0.116663
vt 0.514612 0.296822
vt 0.550447 0.383337
vt 0.616663 0.449553
s 0
usemtl Blue
f 4/1/1 1/2/1 2/3/1
f 6/4/2 3/5/2 4/1/2
f 8/6/3 5/7/3 6/4/3
f 10/8/4 7/9/4 8/6/4
f 12/10/5 9/11/5 10/8/5
f 14/12/6 11/13/6 12/10/6
f 16/14/7 13/15/7 14/12/7
f 18/16/8 15/17/8 16/14/8
f 20/18/9 17/19/9 18/16/9
f 22/20/10 19/21/10 20/18/10
f 24/22/11 21/23/11 22/20/11
f 26/24/12 23/25/12 24/22/12
f 28/26/13 25/27/13 26/24/13
f 30/28/14 27/29/14 28/26/14
f 32/30/15 29/31/15 30/28/15
f 34/3/16 4/1/16 2/3/16
f 38/6/17 48/4/17 33/6/17
f 15/32/18 23/33/18 31/34/18
f 35/10/19 46/8/19 33/10/19
f 39/14/20 44/12/20 33/14/20
f 36/35/21 43/16/21 33/35/21
f 42/20/22 36/35/22 33/20/22
f 37/36/23 47/26/23 33/36/23
f 44/12/24 35/10/24 33/12/24
f 41/1/25 34/3/25 33/1/25
f 45/30/26 37/36/26 33/30/26
f 34/3/27 45/30/27 33/3/27
f 47/26/28 40/24/28 33/26/28
f 48/4/29 41/1/29 33/4/29
f 40/24/30 49/22/30 33/24/30
f 49/22/31 42/20/31 33/22/31
f 43/16/32 39/14/32 33/16/32
f 32/30/33 34/3/33 2/3/33
f 10/8/34 35/10/34 12/10/34
f 24/22/35 40/24/35 26/24/35
f 8/6/36 48/4/36 38/6/36
f 14/12/37 39/14/37 16/14/37
f 28/26/38 37/36/38 30/28/38
f 46/8/39 38/6/39 33/8/39
f 43/16/40 20/18/40 18/16/40
f 42/20/41 24/22/41 22/20/41
f 41/1/42 6/4/42 4/1/42
f 26/24/43 47/26/43 28/26/43
f 8/6/44 46/8/44 10/8/44
f 37/36/45 32/30/45 30/28/45
f 35/10/46 14/12/46 12/10/46
f 16/14/47 43/16/47 18/16/47
f 36/35/48 22/20/48 20/18/48
f 32/30/49 1/2/49 31/37/49
f 4/1/1 3/5/1 1/2/1
f 6/4/2 5/7/2 3/5/2
f 8/6/3 7/9/3 5/7/3
f 10/8/4 9/11/4 7/9/4
f 12/10/5 11/13/5 9/11/5
f 14/12/6 13/15/6 11/13/6
f 16/14/7 15/17/7 13/15/7
f 18/16/8 17/19/8 15/17/8
f 20/18/9 19/21/9 17/19/9
f 22/20/10 21/23/10 19/21/10
f 24/22/11 23/25/11 21/23/11
f 26/24/12 25/27/12 23/25/12
f 28/26/13 27/29/13 25/27/13
f 30/28/14 29/31/14 27/29/14
f 32/30/15 31/37/15 29/31/15
f 34/3/16 41/1/16 4/1/16
f 31/34/18 1/38/18 3/39/18
f 3/39/18 5/40/18 31/34/18
f 5/40/18 7/41/18 31/34/18
f 7/41/18 9/42/18 11/43/18
f 11/43/18 13/44/18 15/32/18
f 15/32/18 17/45/18 19/46/18
f 19/46/18 21/47/18 15/32/18
f 21/47/18 23/33/18 15/32/18
f 23/33/18 25/48/18 27/49/18
f 27/49/18 29/50/18 31/34/18
f 7/41/18 11/43/18 31/34/18
f 11/43/18 15/32/18 31/34/18
f 23/33/18 27/49/18 31/34/18
f 32/30/33 45/30/33 34/3/33
f 10/8/50 46/8/50 35/10/50
f 24/22/35 49/22/35 40/24/35
f 8/6/36 6/4/36 48/4/36
f 14/12/37 44/12/37 39/14/37
f 28/26/38 47/26/38 37/36/38
f 43/16/40 36/35/40 20/18/40
f 42/20/41 49/22/41 24/22/41
f 41/1/42 48/4/42 6/4/42
f 26/24/51 40/24/51 47/26/51
f 8/6/44 38/6/44 46/8/44
f 37/36/45 45/30/45 32/30/45
f 35/10/46 44/12/46 14/12/46
f 16/14/47 39/14/47 43/16/47
f 36/35/48 42/20/48 22/20/48
f 32/30/49 2/3/49 1/2/49
