# Blender 4.4.0
# www.blender.org
mtllib helloBlender.mtl
o Cube
v -1.000000 1.000000 -1.000000
v -1.000000 1.000000 1.000000
v 1.000000 1.000000 -1.000000
v 1.000000 1.000000 1.000000
v -1.000000 -1.000000 -1.000000
v -1.000000 -1.000000 1.000000
v 1.000000 -1.000000 -1.000000
v 1.000000 -1.000000 1.000000
vn -0.0000 1.0000 -0.0000
vn 1.0000 -0.0000 -0.0000
vn -0.0000 -1.0000 -0.0000
vn -1.0000 -0.0000 -0.0000
vn -0.0000 -0.0000 -1.0000
vn -0.0000 -0.0000 1.0000
vt 0.006771 1.000000
vt 0.993229 0.000000
vt 0.006771 0.000000
vt 0.000000 1.000000
vt 1.000000 0.000000
vt 0.000000 0.000000
vt 0.006771 0.000000
vt 0.993229 1.000000
vt 0.006771 1.000000
vt 1.000000 1.000000
vt 0.993229 0.000000
vt 0.993229 1.000000
s 0
g Cube_MyMaterial1
usemtl MyMaterial1
f 2/1/1 3/2/1 1/3/1
f 4/4/2 7/5/2 3/6/2
f 6/10/4 1/6/4 5/5/4
f 4/4/2 8/10/2 7/5/2
f 6/10/4 2/4/4 1/6/4
f 2/1/1 4/12/1 3/2/1
g Cube_MyMaterial2
usemtl MyMaterial2
f 7/10/5 1/6/5 3/4/5
f 4/4/6 6/5/6 8/10/6
f 7/10/5 5/5/5 1/6/5
f 4/4/6 2/6/6 6/5/6
g Cube_MyMaterial3
usemtl MyMaterial3
f 8/7/3 5/8/3 7/9/3
f 8/7/3 6/11/3 5/8/3
