# Blender 4.3.2
# www.blender.org
mtllib untitled.mtl
o Cube
v 1.000000 1.000000 -1.000000 0.0941 1.0000 0.1843
v 1.000000 -1.000000 -1.000000 0.2118 0.1451 1.0000
v 1.000000 1.000000 1.000000 0.9686 1.0000 0.2863
v 1.000000 -1.000000 1.000000 0.7176 0.7098 1.0000
v -1.000000 1.000000 -1.000000 1.0000 0.3647 0.3921
v -1.000000 -1.000000 -1.000000 0.8784 1.0000 0.5843
v -1.000000 1.000000 1.000000 0.3451 0.3882 1.0000
v -1.000000 -1.000000 1.000000 1.0000 0.3647 0.3921
vn -0.0000 1.0000 -0.0000
vn -0.0000 -0.0000 1.0000
vn -1.0000 -0.0000 -0.0000
vn -0.0000 -1.0000 -0.0000
vn 1.0000 -0.0000 -0.0000
vn -0.0000 -0.0000 -1.0000
s 0
usemtl Material
f 1//1 5//1 7//1 3//1
f 4//2 3//2 7//2 8//2
f 8//3 7//3 5//3 6//3
f 6//4 2//4 4//4 8//4
f 2//5 1//5 3//5 4//5
f 6//6 5//6 1//6 2//6
