# Blender 4.3.2
# www.blender.org
mtllib AxisArrowX.mtl
o Gizmo_Location.002
v 0.000040 0.000043 0.090703
v 0.000040 -1.002548 0.090703
v 0.034747 0.000043 0.083784
v 0.034747 -1.002548 0.083784
v 0.064165 0.000043 0.064109
v 0.064165 -1.002548 0.064109
v 0.083814 0.000043 0.034674
v 0.083814 -1.002548 0.034674
v 0.090703 0.000043 -0.000040
v 0.090703 -1.002548 -0.000040
v 0.083784 0.000043 -0.034747
v 0.083784 -1.002548 -0.034747
v 0.064109 0.000043 -0.064165
v 0.064109 -1.002548 -0.064165
v 0.034674 0.000043 -0.083814
v 0.034674 -1.002548 -0.083814
v -0.000040 0.000043 -0.090703
v -0.000040 -1.002548 -0.090703
v -0.034747 0.000043 -0.083784
v -0.034747 -1.002548 -0.083784
v -0.064165 0.000043 -0.064109
v -0.064165 -1.002548 -0.064109
v -0.083814 0.000043 -0.034674
v -0.083814 -1.002548 -0.034674
v -0.090703 0.000043 0.000040
v -0.090703 -1.002548 0.000040
v -0.083784 0.000043 0.034747
v -0.083784 -1.002548 0.034747
v -0.064109 0.000043 0.064165
v -0.064109 -1.002548 0.064165
v -0.034674 0.000043 0.083814
v -0.034674 -1.002548 0.083814
v -0.000000 -1.302730 0.000000
v 0.000070 -1.002678 0.161353
v 0.149044 -1.002678 -0.061812
v -0.061812 -1.002678 -0.149044
v -0.114044 -1.002678 0.114143
v 0.149097 -1.002678 0.061682
v 0.061682 -1.002678 -0.149098
v -0.161353 -1.002678 0.000070
v 0.061812 -1.002678 0.149044
v -0.114144 -1.002678 -0.114044
v -0.000070 -1.002678 -0.161353
v 0.114044 -1.002678 -0.114143
v -0.061682 -1.002678 0.149098
v 0.161353 -1.002678 -0.000070
v -0.149044 -1.002678 0.061812
v 0.114143 -1.002678 0.114044
v -0.149098 -1.002678 -0.061682
vn 0.1955 -0.0000 0.9807
vn 0.5559 -0.0000 0.8312
vn 0.8317 -0.0000 0.5552
vn 0.9809 -0.0000 0.1947
vn 0.9807 -0.0000 -0.1955
vn 0.8312 -0.0000 -0.5559
vn 0.5552 -0.0000 -0.8317
vn 0.1947 -0.0000 -0.9809
vn -0.1955 -0.0000 -0.9807
vn -0.5559 -0.0000 -0.8312
vn -0.8317 -0.0000 -0.5552
vn -0.9809 -0.0000 -0.1947
vn -0.9807 -0.0000 0.1955
vn -0.8312 -0.0000 0.5559
vn -0.5552 -0.0000 0.8317
vn -0.0000 1.0000 0.0018
vn 0.0002 1.0000 0.0018
vn 0.7357 -0.4665 0.4911
vn -0.0000 1.0000 -0.0000
vn 0.8674 -0.4665 -0.1729
vn 0.4911 -0.4665 -0.7357
vn -0.1729 -0.4665 -0.8674
vn -0.4917 -0.4665 -0.7352
vn -0.7352 -0.4665 0.4917
vn 0.7352 -0.4665 -0.4917
vn 0.1729 -0.4665 0.8674
vn -0.4911 -0.4665 0.7357
vn -0.1722 -0.4665 0.8676
vn -0.8674 -0.4665 0.1729
vn 0.4917 -0.4665 0.7352
vn -0.8676 -0.4665 -0.1722
vn -0.7357 -0.4665 -0.4911
vn 0.1722 -0.4665 -0.8676
vn -0.0007 1.0000 0.0017
vn 0.0018 1.0000 -0.0000
vn 0.0017 1.0000 -0.0007
vn -0.0017 1.0000 -0.0007
vn -0.0017 1.0000 -0.0003
vn -0.0018 1.0000 -0.0000
vn 0.0017 1.0000 0.0007
vn 0.0015 1.0000 0.0011
vn 0.0013 1.0000 -0.0013
vn 0.0007 1.0000 -0.0017
vn 0.0002 1.0000 -0.0018
vn -0.0017 1.0000 0.0007
vn -0.0013 1.0000 0.0013
vn 0.8676 -0.4665 0.1722
vn -0.0000 1.0000 -0.0018
vn -0.0002 1.0000 -0.0018
vn -0.0015 1.0000 -0.0011
vn -0.0013 1.0000 -0.0013
vn 0.0007 1.0000 0.0017
vn 0.0013 1.0000 0.0013
vn 0.0017 1.0000 0.0003
vn -0.0007 1.0000 -0.0017
vn -0.1947 -0.0000 0.9809
vt 0.906250 1.000000
vt 0.968750 0.500000
vt 0.968750 1.000000
vt 0.843750 1.000000
vt 0.906250 0.500000
vt 0.781250 1.000000
vt 0.843750 0.500000
vt 0.718750 1.000000
vt 0.781250 0.500000
vt 0.656250 1.000000
vt 0.718750 0.500000
vt 0.593750 1.000000
vt 0.656250 0.500000
vt 0.531250 1.000000
vt 0.593750 0.500000
vt 0.468750 1.000000
vt 0.531250 0.500000
vt 0.406250 1.000000
vt 0.468750 0.500000
vt 0.343750 1.000000
vt 0.406250 0.500000
vt 0.281250 1.000000
vt 0.343750 0.500000
vt 0.218750 1.000000
vt 0.281250 0.500000
vt 0.156250 1.000000
vt 0.218750 0.500000
vt 0.093750 1.000000
vt 0.156250 0.500000
vt 0.031250 1.000000
vt 0.093750 0.500000
vt 0.796822 0.014612
vt 0.514612 0.203178
vt 0.703178 0.485388
vt 0.031250 0.500000
vt 0.796822 0.485388
vt 0.883337 0.449553
vt 0.949553 0.383337
vt 0.985388 0.296822
vt 0.985388 0.203178
vt 0.949553 0.116663
vt 0.883337 0.050447
vt 0.703178 0.014612
vt 0.616663 0.050447
vt 0.550447 0.116663
vt 0.514612 0.296822
vt 0.550447 0.383337
vt 0.616663 0.449553
s 1
usemtl Red
f 4/1/1 1/2/1 2/3/1
f 6/4/2 3/5/2 4/1/2
f 8/6/3 5/7/3 6/4/3
f 10/8/4 7/9/4 8/6/4
f 12/10/5 9/11/5 10/8/5
f 14/12/6 11/13/6 12/10/6
f 16/14/7 13/15/7 14/12/7
f 18/16/8 15/17/8 16/14/8
f 20/18/9 17/19/9 18/16/9
f 22/20/10 19/21/10 20/18/10
f 24/22/11 21/23/11 22/20/11
f 26/24/12 23/25/12 24/22/12
f 28/26/13 25/27/13 26/24/13
f 30/28/14 27/29/14 28/26/14
f 32/30/15 29/31/15 30/28/15
f 34/3/16 4/1/17 2/3/16
f 38/6/18 48/4/18 33/6/18
f 15/32/19 23/33/19 31/34/19
f 35/10/20 46/8/20 33/10/20
f 39/14/21 44/12/21 33/14/21
f 36/18/22 43/16/22 33/18/22
f 42/20/23 36/18/23 33/20/23
f 37/28/24 47/26/24 33/28/24
f 44/12/25 35/10/25 33/12/25
f 41/1/26 34/3/26 33/1/26
f 45/30/27 37/28/27 33/30/27
f 34/3/28 45/30/28 33/3/28
f 47/26/29 40/24/29 33/26/29
f 48/4/30 41/1/30 33/4/30
f 40/24/31 49/22/31 33/24/31
f 49/22/32 42/20/32 33/22/32
f 43/16/33 39/14/33 33/16/33
f 32/30/34 34/3/16 2/3/16
f 10/8/35 35/10/36 12/10/36
f 24/22/37 40/24/38 26/24/39
f 8/6/40 48/4/41 38/6/40
f 14/12/42 39/14/43 16/14/44
f 28/26/45 37/28/46 30/28/46
f 46/8/47 38/6/47 33/8/47
f 43/16/48 20/18/49 18/16/48
f 42/20/50 24/22/37 22/20/51
f 41/1/52 6/4/53 4/1/17
f 26/24/39 47/26/45 28/26/45
f 8/6/40 46/8/54 10/8/35
f 37/28/46 32/30/34 30/28/46
f 35/10/36 14/12/42 12/10/36
f 16/14/44 43/16/48 18/16/48
f 36/18/55 22/20/51 20/18/49
f 32/30/56 1/2/56 31/35/56
f 4/1/1 3/5/1 1/2/1
f 6/4/2 5/7/2 3/5/2
f 8/6/3 7/9/3 5/7/3
f 10/8/4 9/11/4 7/9/4
f 12/10/5 11/13/5 9/11/5
f 14/12/6 13/15/6 11/13/6
f 16/14/7 15/17/7 13/15/7
f 18/16/8 17/19/8 15/17/8
f 20/18/9 19/21/9 17/19/9
f 22/20/10 21/23/10 19/21/10
f 24/22/11 23/25/11 21/23/11
f 26/24/12 25/27/12 23/25/12
f 28/26/13 27/29/13 25/27/13
f 30/28/14 29/31/14 27/29/14
f 32/30/15 31/35/15 29/31/15
f 34/3/16 41/1/52 4/1/17
f 31/34/19 1/36/19 3/37/19
f 3/37/19 5/38/19 31/34/19
f 5/38/19 7/39/19 31/34/19
f 7/39/19 9/40/19 11/41/19
f 11/41/19 13/42/19 15/32/19
f 15/32/19 17/43/19 19/44/19
f 19/44/19 21/45/19 15/32/19
f 21/45/19 23/33/19 15/32/19
f 23/33/19 25/46/19 27/47/19
f 27/47/19 29/48/19 31/34/19
f 7/39/19 11/41/19 31/34/19
f 11/41/19 15/32/19 31/34/19
f 23/33/19 27/47/19 31/34/19
f 32/30/34 45/30/34 34/3/16
f 10/8/35 46/8/54 35/10/36
f 24/22/37 49/22/37 40/24/38
f 8/6/40 6/4/53 48/4/41
f 14/12/42 44/12/42 39/14/43
f 28/26/45 47/26/45 37/28/46
f 43/16/48 36/18/55 20/18/49
f 42/20/50 49/22/37 24/22/37
f 41/1/52 48/4/41 6/4/53
f 26/24/39 40/24/38 47/26/45
f 8/6/40 38/6/40 46/8/54
f 37/28/46 45/30/34 32/30/34
f 35/10/36 44/12/42 14/12/42
f 16/14/44 39/14/43 43/16/48
f 36/18/55 42/20/50 22/20/51
f 32/30/56 2/3/56 1/2/56
